<svg width="29" height="29" xmlns="http://www.w3.org/2000/svg"><path d="M28.67 11.69A14.33 14.33 0 0 0 .29 14.57a14.43 14.43 0 0 0 2.45 8.02 14.44 14.44 0 0 0 9 6.03 14.32 14.32 0 0 0 16.1-8.46 14.25 14.25 0 0 0 .83-8.47zm-1.8 2.76c-.18-.04-4.33-.93-8.53-.4a46.17 46.17 0 0 0-1.08-2.4c4.83-1.98 6.8-4.82 6.82-4.85a12.18 12.18 0 0 1 2.78 7.65zM22.7 5.4c-.03.04-1.77 2.7-6.4 4.43a62.2 62.2 0 0 0-4.57-7.14 12.22 12.22 0 0 1 10.97 2.7zm-11.02-2.7h-.04.04zm-2.3.81c.17.22 2.44 3.29 4.56 7.06a45.29 45.29 0 0 1-11.3 1.5C3.43 8.25 5.97 5.1 9.4 3.5zM2.39 14.57l.01-.38c.22 0 6.27.14 12.57-1.75.35.69.69 1.39 1 2.08l-.49.15c-6.6 2.14-9.96 8.08-9.96 8.08a12.2 12.2 0 0 1-3.13-8.18zm12.24 12.25a12.2 12.2 0 0 1-7.52-2.6s2.35-5.11 9.6-7.64l.09-.03a50.95 50.95 0 0 1 2.61 9.3c-1.47.62-3.08.97-4.78.97zm6.85-2.09c-.13-.74-.78-4.33-2.39-8.75 3.95-.63 7.38.46 7.63.54a12.25 12.25 0 0 1-5.24 8.21z" fill="#000" fill-rule="nonzero"/></svg>