<svg width="30" height="29" xmlns="http://www.w3.org/2000/svg"><path d="M15 0C6.72 0 0 6.67 0 14.9a14.9 14.9 0 0 0 10.26 14.12c.75.14 1.02-.32 1.02-.72l-.02-2.77c-4.17.9-5.05-1.75-5.05-1.75-.68-1.72-1.67-2.18-1.67-2.18-1.36-.92.1-.9.1-.9 1.51.1 2.3 1.53 2.3 1.53 1.34 2.27 3.52 1.62 4.37 1.23.14-.96.52-1.61.95-1.99-3.33-.37-6.83-1.65-6.83-7.36 0-1.62.59-2.95 1.54-4-.15-.37-.67-1.88.15-3.93 0 0 1.26-.4 4.13 1.52a14.38 14.38 0 0 1 7.5 0c2.87-1.92 4.13-1.52 4.13-1.52a5.3 5.3 0 0 1 .15 3.94 5.73 5.73 0 0 1 1.54 4c0 5.72-3.5 6.97-6.85 7.34.54.47 1.02 1.37 1.02 2.76l-.02 4.09c0 .4.27.86 1.03.71A14.9 14.9 0 0 0 30 14.89C30 6.67 23.28 0 15 0z" fill="#000" fill-rule="nonzero"/></svg>