<svg width="30" height="30" xmlns="http://www.w3.org/2000/svg"><path d="M15.2.1a14.78 14.78 0 1 0 .01 29.55 14.78 14.78 0 0 0 0-29.56zm7.45 11.79l.01.48c0 4.92-3.74 10.6-10.6 10.6-2.1 0-4.05-.62-5.7-1.68a7.61 7.61 0 0 0 5.51-1.54c-1.63-.03-3-1.1-3.47-2.59a3.64 3.64 0 0 0 1.68-.06 3.73 3.73 0 0 1-3-3.65l.01-.05c.5.28 1.08.45 1.69.47A3.72 3.72 0 0 1 7.62 8.9a10.57 10.57 0 0 0 7.68 3.89 3.73 3.73 0 0 1 6.34-3.4 7.44 7.44 0 0 0 2.37-.9c-.28.87-.87 1.6-1.64 2.06a7.44 7.44 0 0 0 2.14-.59c-.5.75-1.13 1.4-1.86 1.93z" fill-rule="nonzero"/></svg>